<?xml version="1.0" standalone="no"?>
<!DOCTYPE svg PUBLIC "-//W3C//DTD SVG 20010904//EN"
 "http://www.w3.org/TR/2001/REC-SVG-20010904/DTD/svg10.dtd">
<svg version="1.0" xmlns="http://www.w3.org/2000/svg"
 width="100.000000pt" height="100.000000pt" viewBox="0 0 100.000000 100.000000"
 preserveAspectRatio="xMidYMid meet">
<metadata>
Created by potrace 1.11, written by Peter Selinger 2001-2013
</metadata>
<g transform="translate(0.000000,100.000000) scale(0.100000,-0.100000)"
fill="#000000" stroke="none">
<path d="M2 595 c2 -223 6 -405 11 -405 12 0 8 -28 -6 -34 -9 -5 -9 -7 1 -12
6 -3 12 -16 12 -29 0 -13 5 -27 11 -31 6 -3 9 -15 6 -25 -3 -12 0 -19 9 -19 8
0 14 5 14 10 0 6 5 10 10 10 6 0 10 -9 10 -19 0 -34 74 -40 450 -40 322 0 355
1 367 17 12 15 14 16 26 1 15 -20 47 -20 66 -1 10 10 11 16 3 21 -7 4 -8 12
-2 21 6 9 10 192 10 432 0 324 -3 417 -12 421 -10 4 -10 6 0 6 7 1 12 16 12
40 l0 39 -500 1 -501 2 3 -406z m558 160 c0 -6 21 -28 46 -50 25 -22 50 -51
55 -64 7 -17 13 -21 22 -13 22 18 57 3 57 -25 0 -13 -4 -22 -9 -19 -5 3 -11 0
-14 -7 -4 -10 1 -13 16 -10 20 4 22 0 24 -41 1 -28 -2 -44 -8 -40 -13 8 -59
-4 -59 -15 0 -12 29 -41 40 -41 5 0 7 7 4 15 -4 8 -1 15 5 15 16 0 13 -37 -4
-44 -8 -3 -12 -12 -9 -21 3 -8 1 -15 -5 -15 -6 0 -12 5 -12 10 -1 6 -2 16 -3
22 -2 24 -33 18 -64 -12 -18 -17 -43 -30 -57 -30 -31 0 -32 8 -2 20 18 7 19 9
4 9 -13 1 -17 6 -12 20 4 14 0 21 -15 26 -11 3 -21 13 -21 21 -3 35 -19 74
-30 74 -5 0 -12 -13 -15 -30 -4 -16 -12 -30 -18 -30 -30 -1 -82 -70 -72 -95 3
-8 1 -17 -4 -20 -5 -3 -11 4 -15 15 -3 11 -13 20 -21 20 -8 0 -14 3 -14 8 0 4
-13 13 -30 20 -16 8 -30 20 -30 28 0 19 19 18 26 -1 9 -24 41 -18 63 13 12 15
26 33 31 40 6 6 8 12 5 12 -4 0 3 15 14 33 24 39 19 69 -15 87 -34 19 -74 0
-74 -34 0 -15 -8 -30 -20 -36 -20 -11 -37 -53 -31 -78 2 -10 -5 -8 -23 5 -14
10 -26 24 -26 31 0 6 -7 12 -15 12 -8 0 -15 7 -15 15 0 23 27 72 42 78 7 2 19
22 27 43 7 22 18 45 23 52 12 14 92 17 84 3 -8 -13 63 -5 80 10 11 9 14 8 14
-10 0 -24 18 -29 25 -6 3 8 7 21 9 28 4 15 46 17 46 2z m-346 -137 c-12 -17
-15 -18 -10 -5 3 11 9 31 13 45 7 25 8 26 11 5 2 -13 -4 -33 -14 -45z m-7
-120 c-3 -8 -6 -5 -6 6 -1 11 2 17 5 13 3 -3 4 -12 1 -19z m47 -33 c-4 -8 -2
-15 2 -15 13 0 37 -58 29 -70 -11 -18 -25 -10 -25 14 0 14 -4 28 -10 31 -13 8
-13 55 0 55 5 0 7 -7 4 -15z m241 -5 c3 -5 1 -10 -4 -10 -6 0 -11 5 -11 10 0
6 2 10 4 10 3 0 8 -4 11 -10z m-40 -90 c-3 -5 -14 -10 -23 -9 -14 0 -13 2 3 9
27 11 27 11 20 0z m155 -25 c0 -8 -4 -15 -10 -15 -5 0 -7 7 -4 15 4 8 8 15 10
15 2 0 4 -7 4 -15z"/>
<path d="M315 702 c-3 -3 -5 -13 -5 -23 0 -13 5 -16 16 -12 13 5 13 7 2 14 -8
6 3 9 30 9 27 0 41 -4 37 -10 -4 -6 -3 -9 2 -8 4 1 18 -3 31 -11 13 -7 28 -11
35 -8 18 6 -53 39 -100 47 -24 4 -45 5 -48 2z"/>
<path d="M530 691 c0 -13 -49 -20 -53 -7 -3 6 -8 7 -13 2 -5 -5 -4 -11 4 -13
17 -6 15 -30 -3 -37 -11 -4 -14 -13 -9 -33 13 -59 16 -65 26 -55 6 6 16 8 23
5 17 -6 31 37 15 47 -9 5 -9 9 -1 14 6 4 11 12 11 18 0 6 -11 3 -25 -6 -33
-22 -35 -21 -22 14 10 25 16 30 35 25 23 -6 57 16 45 29 -9 9 -33 7 -33 -3z"/>
<path d="M620 660 c0 -5 -12 -13 -27 -16 -50 -13 -70 -55 -40 -86 7 -7 18 -26
25 -43 19 -44 60 -88 77 -81 9 3 14 9 13 13 -1 4 5 20 15 34 15 22 16 31 6 53
-7 14 -16 26 -20 26 -13 0 -48 80 -42 96 3 8 2 14 -1 14 -3 0 -6 -4 -6 -10z"/>
<path d="M267 613 c-2 -10 -5 -31 -6 -47 l-1 -29 36 37 c19 20 32 41 29 46
-11 17 -53 11 -58 -7z"/>
<path d="M672 613 c-10 -4 -10 -8 -1 -19 15 -18 35 -18 42 0 9 23 -9 32 -41
19z"/>
<path d="M447 523 c3 -8 0 -19 -8 -25 -11 -7 -10 -8 5 -6 22 4 30 34 11 42 -9
3 -12 0 -8 -11z"/>
</g>
</svg>
